<?xml version="1.0" standalone="no"?>
<!DOCTYPE svg PUBLIC "-//W3C//DTD SVG 20010904//EN"
 "http://www.w3.org/TR/2001/REC-SVG-20010904/DTD/svg10.dtd">
<svg version="1.0" xmlns="http://www.w3.org/2000/svg"
 width="170.000000pt" height="170.000000pt" viewBox="0 0 170.000000 170.000000"
 preserveAspectRatio="xMidYMid meet">
<metadata>
Created by potrace 1.14, written by Peter Selinger 2001-2017
</metadata>
<g transform="translate(0.000000,170.000000) scale(0.100000,-0.100000)"
fill="#000000" stroke="none">
<path d="M440 855 l0 -575 278 0 279 0 60 30 c115 58 183 159 191 285 5 85
-20 160 -73 222 l-34 40 25 24 c13 12 37 48 52 78 36 74 39 200 5 273 -31 69
-99 137 -168 169 l-60 29 -277 0 -278 0 0 -575z m551 464 c92 -28 152 -113
153 -219 1 -54 -4 -73 -27 -112 -15 -26 -32 -50 -38 -54 -6 -3 -39 21 -73 54
-33 34 -78 68 -98 77 -84 34 -189 7 -252 -66 -117 -137 -36 -340 147 -365 72
-10 120 10 197 82 38 36 74 63 79 59 6 -3 23 -27 38 -53 23 -39 28 -58 27
-114 0 -56 -5 -74 -30 -114 -33 -54 -78 -89 -133 -104 -20 -5 -127 -10 -238
-10 l-203 0 -2 475 -3 475 209 0 c127 0 224 -4 247 -11z m-124 -350 c15 -5 52
-33 81 -62 l52 -51 -52 -53 c-65 -66 -108 -81 -167 -57 -51 20 -71 51 -71 111
0 57 19 89 64 109 38 16 57 17 93 3z"/>
</g>
</svg>
